<?xml version="1.0" standalone="no"?>
<!DOCTYPE svg PUBLIC "-//W3C//DTD SVG 20010904//EN"
 "http://www.w3.org/TR/2001/REC-SVG-20010904/DTD/svg10.dtd">
<svg version="1.0" xmlns="http://www.w3.org/2000/svg"
 width="1181.000000pt" height="1009.000000pt" viewBox="0 0 1181.000000 1009.000000"
 preserveAspectRatio="xMidYMid meet">

<g transform="translate(0.000000,1009.000000) scale(0.100000,-0.100000)"
fill="#000000" stroke="none">
<path d="M5602 9430 c-68 -16 -103 -72 -103 -165 0 -70 24 -132 63 -159 34
-24 108 -20 149 7 69 46 90 151 47 237 -36 70 -88 97 -156 80z"/>
<path d="M4599 9417 c-20 -4 -52 -24 -70 -43 -32 -33 -34 -40 -34 -102 0 -37
6 -82 14 -100 15 -35 82 -82 118 -82 35 0 90 28 117 60 23 27 26 41 26 101 0
73 -13 110 -48 142 -28 25 -79 35 -123 24z"/>
<path d="M5905 9412 c-59 -28 -89 -86 -83 -163 7 -95 64 -154 148 -154 56 0
94 23 125 76 28 48 28 147 -1 185 -50 68 -119 88 -189 56z"/>
<path d="M6242 9403 c-57 -28 -82 -67 -82 -128 0 -87 37 -149 104 -175 52 -19
141 22 171 80 31 61 13 163 -39 215 -20 20 -35 25 -73 25 -26 0 -63 -8 -81
-17z"/>
<path d="M6575 9404 c-81 -42 -109 -145 -61 -226 29 -49 87 -88 133 -88 66 0
143 90 143 167 0 48 -38 122 -74 144 -37 23 -100 24 -141 3z"/>
<path d="M4744 8971 c-48 -22 -80 -59 -96 -113 -25 -85 46 -204 129 -215 93
-12 157 61 157 177 0 77 -21 122 -67 150 -40 25 -70 25 -123 1z"/>
<path d="M5758 8980 c-77 -23 -121 -84 -121 -166 0 -93 64 -164 148 -164 110
0 174 122 128 244 -27 72 -89 107 -155 86z"/>
<path d="M4405 8962 c-81 -39 -117 -109 -95 -186 16 -59 42 -93 87 -111 48
-20 92 -19 130 5 41 25 59 53 73 115 30 136 -77 233 -195 177z"/>
<path d="M6052 8959 c-23 -12 -49 -34 -57 -50 -22 -42 -19 -147 5 -187 55 -90
171 -95 231 -11 27 39 38 160 17 198 -35 65 -123 87 -196 50z"/>
<path d="M6379 8958 c-101 -58 -106 -221 -10 -285 52 -35 126 -32 173 8 60 49
74 149 33 230 -35 66 -126 88 -196 47z"/>
<path d="M6720 8962 c-57 -31 -80 -74 -80 -151 0 -107 50 -161 149 -161 49 0
57 3 91 38 46 46 58 94 42 172 -16 74 -53 111 -119 117 -35 3 -58 -1 -83 -15z"/>
<path d="M7040 8961 c-72 -38 -93 -131 -53 -222 27 -60 62 -89 113 -96 91 -12
150 59 150 179 0 73 -22 118 -69 143 -40 20 -99 19 -141 -4z"/>
<path d="M7404 8970 c-44 -14 -91 -70 -99 -118 -8 -49 10 -119 38 -150 65 -71
169 -69 226 4 17 22 21 41 21 101 0 81 -14 120 -54 146 -32 21 -92 29 -132 17z"/>
<path d="M5049 8947 c-71 -47 -86 -135 -39 -226 51 -102 188 -93 239 14 39 82
20 183 -39 219 -42 24 -120 21 -161 -7z"/>
<path d="M4577 8526 c-73 -27 -117 -86 -117 -157 0 -87 73 -159 161 -159 85 0
139 59 139 152 0 131 -80 202 -183 164z"/>
<path d="M4904 8529 c-35 -10 -82 -53 -95 -87 -27 -71 5 -176 64 -212 38 -24
106 -26 147 -5 53 27 75 71 75 151 0 62 -3 75 -28 107 -38 50 -95 66 -163 46z"/>
<path d="M5235 8529 c-65 -21 -95 -64 -95 -139 0 -106 63 -186 144 -184 76 2
132 61 143 152 6 58 -21 131 -59 156 -30 20 -95 28 -133 15z"/>
<path d="M5579 8530 c-46 -14 -78 -41 -100 -86 -25 -53 -21 -96 16 -160 32
-55 64 -74 125 -74 45 0 54 4 88 38 56 56 67 132 32 209 -30 68 -90 95 -161
73z"/>
<path d="M5881 8523 c-54 -28 -74 -64 -79 -136 -7 -110 45 -181 133 -179 72 1
122 40 144 112 21 70 6 142 -39 185 -36 35 -111 43 -159 18z"/>
<path d="M6545 8526 c-17 -7 -43 -28 -58 -45 -23 -28 -27 -42 -27 -97 0 -75
16 -112 63 -148 26 -20 46 -26 84 -26 44 0 55 4 82 32 39 40 54 95 49 171 -4
48 -9 63 -35 89 -37 36 -108 47 -158 24z"/>
<path d="M7244 8531 c-46 -11 -81 -41 -104 -87 -24 -48 -25 -70 -6 -115 44
-105 130 -146 210 -98 56 33 71 63 71 149 0 91 -23 133 -83 150 -41 11 -44 11
-88 1z"/>
<path d="M7550 8523 c-69 -36 -103 -121 -81 -203 22 -83 95 -128 177 -110 70
16 106 71 105 162 0 65 -19 108 -62 140 -37 28 -97 33 -139 11z"/>
<path d="M6189 8507 c-18 -12 -39 -34 -46 -47 -18 -35 -16 -102 3 -152 66
-175 265 -118 268 77 2 105 -36 145 -137 145 -40 0 -63 -6 -88 -23z"/>
<path d="M8074 8097 c-89 -36 -119 -83 -112 -182 3 -51 9 -70 28 -91 36 -38
73 -54 125 -54 86 0 135 57 135 155 0 126 -84 209 -176 172z"/>
<path d="M3034 8081 c-57 -35 -74 -67 -74 -138 0 -107 57 -173 147 -173 85 1
133 65 133 177 0 68 -23 114 -69 138 -41 20 -99 19 -137 -4z"/>
<path d="M3380 8089 c-55 -22 -100 -89 -100 -150 0 -46 38 -115 79 -143 62
-43 124 -32 186 34 28 29 30 37 30 104 0 52 -5 79 -18 99 -38 58 -113 81 -177
56z"/>
<path d="M3720 8093 c-111 -42 -134 -198 -43 -290 29 -28 41 -33 80 -33 86 0
142 61 151 166 8 95 -49 165 -133 163 -22 0 -47 -3 -55 -6z"/>
<path d="M4032 8084 c-55 -28 -77 -69 -77 -146 0 -52 5 -73 21 -95 74 -99 201
-96 254 6 36 72 21 168 -34 220 -34 32 -116 39 -164 15z"/>
<path d="M4395 8084 c-21 -7 -52 -27 -69 -44 -29 -28 -31 -35 -31 -103 0 -59
4 -78 23 -105 59 -82 185 -84 238 -5 38 56 14 197 -40 242 -27 23 -81 29 -121
15z"/>
<path d="M4705 8082 c-54 -34 -68 -59 -73 -121 -5 -75 10 -122 54 -161 61 -53
158 -34 204 42 24 40 27 135 6 176 -39 74 -128 104 -191 64z"/>
<path d="M5044 8081 c-64 -29 -84 -65 -84 -150 0 -70 1 -71 43 -116 42 -43 46
-45 101 -45 54 0 61 3 97 39 l39 39 0 85 c0 77 -2 88 -26 116 -23 28 -76 51
-114 51 -8 0 -33 -9 -56 -19z"/>
<path d="M5383 8080 c-103 -46 -120 -185 -33 -272 33 -33 44 -38 85 -38 85 0
145 70 145 171 0 71 -23 114 -74 139 -52 25 -69 25 -123 0z"/>
<path d="M5740 8093 c-175 -71 -148 -323 34 -323 100 0 154 64 142 168 -7 61
-23 97 -59 130 -25 24 -88 37 -117 25z"/>
<path d="M6065 8093 c-35 -9 -87 -55 -102 -91 -17 -42 -12 -112 13 -161 24
-49 64 -71 127 -71 73 0 109 29 134 106 15 47 15 61 4 102 -15 57 -52 99 -100
112 -38 10 -44 11 -76 3z"/>
<path d="M6732 8092 c-76 -23 -118 -100 -102 -185 12 -60 22 -78 61 -111 63
-53 162 -27 204 55 20 39 19 126 -3 168 -30 60 -99 92 -160 73z"/>
<path d="M7045 8081 c-67 -31 -88 -62 -93 -135 -7 -114 43 -176 143 -176 56 0
106 25 127 62 7 14 13 58 13 109 0 73 -3 90 -20 109 -47 52 -103 62 -170 31z"/>
<path d="M7390 8089 c-47 -19 -89 -69 -96 -116 -11 -75 3 -133 43 -170 30 -29
41 -33 91 -33 41 0 64 6 88 22 47 32 59 62 58 139 0 54 -5 75 -25 103 -39 57
-100 78 -159 55z"/>
<path d="M7699 8077 c-18 -12 -44 -38 -57 -57 -20 -30 -23 -44 -20 -102 3 -54
8 -72 28 -93 36 -39 73 -55 124 -55 78 0 136 71 136 165 0 130 -114 207 -211
142z"/>
<path d="M6375 8076 c-71 -31 -101 -93 -85 -172 19 -88 70 -134 151 -134 99 0
166 99 139 204 -7 28 -20 59 -29 70 -39 45 -116 59 -176 32z"/>
<path d="M2885 7644 c-82 -42 -116 -112 -95 -191 25 -88 65 -124 141 -125 93
-1 139 49 139 153 0 137 -87 214 -185 163z"/>
<path d="M3215 7641 c-79 -36 -102 -85 -85 -178 9 -45 21 -72 44 -99 30 -35
37 -38 84 -38 91 0 152 66 152 166 0 75 -20 122 -62 148 -41 25 -81 25 -133 1z"/>
<path d="M3875 7645 c-22 -8 -52 -28 -67 -45 -24 -26 -28 -39 -28 -89 0 -74
20 -122 65 -156 40 -31 116 -39 158 -16 35 19 67 86 67 140 0 137 -83 207
-195 166z"/>
<path d="M4223 7653 c-41 -8 -102 -74 -115 -125 -22 -86 28 -175 110 -198 116
-31 203 55 186 183 -15 105 -84 159 -181 140z"/>
<path d="M4550 7649 c-32 -13 -78 -56 -96 -91 -20 -39 -17 -98 9 -148 31 -61
66 -84 126 -84 86 0 141 58 140 149 -1 131 -84 212 -179 174z"/>
<path d="M4852 7639 c-55 -28 -72 -61 -72 -144 0 -108 46 -169 128 -169 65 0
111 28 140 84 45 90 18 191 -61 229 -55 26 -81 26 -135 0z"/>
<path d="M5545 7641 c-62 -28 -85 -60 -92 -124 -17 -164 167 -265 252 -139 21
31 25 48 25 114 0 95 -12 122 -65 148 -51 25 -69 25 -120 1z"/>
<path d="M5875 7645 c-99 -35 -129 -145 -69 -251 40 -71 142 -91 209 -39 48
36 59 60 57 131 -1 80 -32 134 -91 158 -49 19 -54 19 -106 1z"/>
<path d="M6245 7655 c-5 -2 -22 -6 -37 -9 -14 -3 -40 -20 -57 -37 -29 -28 -31
-35 -31 -102 0 -109 41 -170 121 -183 78 -13 142 46 154 141 10 71 -8 129 -48
159 -31 23 -81 38 -102 31z"/>
<path d="M6540 7644 c-46 -20 -69 -42 -86 -83 -31 -74 -4 -179 55 -214 43 -25
120 -22 162 6 52 34 71 80 66 153 -5 73 -25 105 -83 134 -48 24 -67 24 -114 4z"/>
<path d="M7205 7649 c-17 -4 -44 -22 -59 -38 -24 -25 -29 -40 -33 -98 -9 -114
29 -170 120 -180 51 -6 107 16 136 53 17 21 21 41 21 96 0 138 -70 201 -185
167z"/>
<path d="M7535 7646 c-42 -18 -93 -79 -100 -120 -20 -105 49 -200 147 -200 85
0 143 69 143 169 0 70 -27 119 -79 145 -49 23 -69 24 -111 6z"/>
<path d="M7853 7635 c-67 -34 -88 -74 -78 -154 8 -66 37 -124 73 -142 14 -8
47 -14 73 -13 68 1 113 37 135 109 17 52 17 58 1 108 -18 57 -45 89 -90 106
-41 16 -57 14 -114 -14z"/>
<path d="M8190 7639 c-26 -11 -55 -34 -69 -54 -20 -30 -23 -44 -19 -100 6
-102 58 -157 147 -157 94 1 146 59 146 162 0 80 -23 122 -80 150 -51 25 -68
25 -125 -1z"/>
<path d="M8524 7642 c-64 -31 -84 -63 -84 -140 0 -51 5 -74 24 -106 70 -119
225 -85 256 56 10 46 9 60 -7 107 -10 32 -29 62 -44 73 -38 29 -96 32 -145 10z"/>
<path d="M2730 7209 c-32 -13 -78 -56 -96 -91 -8 -15 -14 -47 -14 -71 0 -91
61 -157 146 -157 93 0 146 57 147 159 0 94 -55 172 -122 170 -20 0 -47 -5 -61
-10z"/>
<path d="M3045 7201 c-17 -10 -43 -33 -58 -50 -23 -28 -27 -41 -27 -97 0 -110
46 -168 133 -168 93 0 147 57 147 156 0 75 -16 123 -51 152 -37 32 -100 35
-144 7z"/>
<path d="M3695 7206 c-42 -19 -71 -54 -85 -102 -21 -70 18 -171 77 -202 39
-21 103 -15 141 14 44 34 62 78 62 151 0 120 -92 185 -195 139z"/>
<path d="M4024 7206 c-17 -8 -44 -31 -60 -51 -24 -31 -28 -46 -28 -100 0 -53
4 -69 28 -99 34 -45 74 -66 126 -66 91 0 140 56 140 158 0 68 -13 103 -54 141
-31 29 -106 38 -152 17z"/>
<path d="M4346 7197 c-74 -42 -101 -147 -61 -231 48 -100 195 -103 255 -4 40
66 18 197 -40 238 -38 27 -104 26 -154 -3z"/>
<path d="M4695 7206 c-58 -26 -95 -86 -95 -155 0 -96 50 -159 133 -168 58 -6
106 22 135 77 26 52 28 88 7 157 -27 90 -98 125 -180 89z"/>
<path d="M5020 7199 c-69 -40 -106 -136 -80 -213 6 -19 28 -49 48 -66 69 -57
185 -33 218 45 30 72 11 181 -38 227 -37 35 -96 37 -148 7z"/>
<path d="M6035 7205 c-111 -39 -142 -191 -56 -276 63 -64 141 -68 204 -11 62
55 62 210 0 263 -18 16 -77 39 -97 39 -6 -1 -29 -7 -51 -15z"/>
<path d="M6352 7203 c-55 -27 -77 -68 -77 -143 0 -75 19 -113 71 -149 67 -46
145 -25 189 49 26 45 27 155 2 194 -40 61 -119 82 -185 49z"/>
<path d="M6678 7200 c-53 -28 -78 -75 -78 -146 0 -70 20 -107 77 -141 69 -41
157 -23 199 42 24 37 25 138 1 188 -35 73 -122 97 -199 57z"/>
<path d="M7676 7197 c-56 -32 -78 -77 -74 -154 3 -51 9 -69 34 -100 119 -148
319 26 234 203 -36 72 -119 94 -194 51z"/>
<path d="M8033 7208 c-17 -6 -46 -26 -64 -44 -27 -27 -33 -43 -37 -89 -10
-117 48 -185 158 -185 43 0 56 4 80 28 79 80 58 249 -36 288 -38 16 -56 16
-101 2z"/>
<path d="M8697 7206 c-79 -29 -114 -89 -104 -179 11 -91 64 -137 156 -137 48
0 57 3 86 35 47 49 62 118 40 184 -16 48 -62 101 -88 101 -7 0 -21 2 -32 5
-11 3 -37 -2 -58 -9z"/>
<path d="M5695 7201 c-36 -15 -72 -60 -85 -106 -35 -125 76 -258 179 -215 62
25 101 96 101 183 0 60 -27 112 -70 134 -28 14 -95 16 -125 4z"/>
<path d="M7345 7190 c-56 -29 -78 -64 -83 -130 -9 -130 89 -209 204 -165 61
23 84 61 84 141 0 68 -17 119 -49 148 -32 29 -107 32 -156 6z"/>
<path d="M5813 6794 c-125 -85 -308 -315 -392 -494 -87 -186 -110 -304 -91
-472 11 -97 23 -155 69 -334 5 -18 16 -46 25 -64 20 -40 20 -50 2 -50 -35 0
-157 178 -236 343 -101 213 -126 371 -76 493 30 73 41 130 28 138 -21 12 -68
-17 -125 -75 -31 -33 -63 -59 -69 -57 -7 3 -24 34 -38 70 -32 83 -56 118 -80
118 -20 0 -22 -5 -35 -113 -5 -37 -10 -47 -23 -45 -36 7 -127 155 -220 358
-49 106 -67 130 -93 130 -44 0 -35 -129 17 -235 60 -124 103 -196 258 -430
160 -240 207 -317 245 -399 25 -54 39 -116 26 -116 -18 0 -168 89 -323 192
-154 102 -265 166 -319 182 -19 6 -23 4 -23 -14 0 -30 15 -55 77 -132 56 -69
162 -165 393 -357 283 -234 335 -284 432 -412 46 -60 130 -203 152 -259 10
-25 24 -58 31 -75 25 -56 61 -196 85 -329 15 -88 12 -387 -5 -481 -37 -206
-103 -364 -196 -469 -118 -132 -259 -195 -519 -235 -61 -10 -103 -15 -335 -42
-49 -5 -117 -14 -150 -19 -33 -5 -94 -14 -135 -20 -146 -20 -226 -32 -310 -47
-47 -8 -110 -18 -140 -23 -57 -9 -227 -43 -293 -59 -38 -9 -69 -37 -63 -56 1
-5 43 -13 92 -16 112 -9 3464 -8 4074 0 274 4 455 10 455 15 0 29 -92 56 -285
85 -156 24 -378 64 -422 77 -28 8 -22 46 18 121 20 37 43 81 51 96 22 42 59
60 137 69 54 6 84 4 126 -8 50 -14 69 -30 218 -177 99 -98 176 -184 196 -217
l32 -55 110 3 c60 2 113 8 117 12 20 18 -14 62 -166 216 -88 90 -168 175 -176
189 -14 23 -14 27 -1 35 8 5 41 10 73 10 51 0 57 2 57 21 0 12 -10 38 -21 59
-12 21 -195 206 -406 411 -450 435 -479 471 -538 645 -35 103 -58 145 -99 182
-102 89 -263 65 -466 -70 -97 -65 -130 -96 -130 -125 0 -17 7 -24 28 -29 67
-15 125 -38 153 -61 60 -51 76 -108 99 -343 15 -159 26 -202 72 -298 61 -128
163 -222 366 -333 34 -19 62 -39 62 -45 0 -19 -94 -156 -142 -206 -50 -54 -70
-58 -197 -37 -215 35 -391 116 -480 222 -113 135 -203 313 -241 481 -19 84
-22 118 -17 230 6 177 27 255 114 423 59 115 110 181 237 309 122 122 166 156
407 319 478 322 659 543 659 801 0 46 -5 86 -10 89 -15 9 -60 -44 -99 -116
-77 -146 -163 -247 -292 -340 -107 -79 -110 -81 -382 -221 -223 -115 -297
-159 -544 -329 -85 -58 -162 -99 -178 -93 -10 4 -32 68 -36 104 -3 35 4 53 63
141 242 370 397 657 469 872 42 126 46 247 9 300 -24 35 -57 57 -84 57 -18 0
-33 -45 -51 -145 -8 -44 -25 -105 -37 -135 -25 -61 -94 -186 -106 -194 -17
-10 -33 13 -47 70 -20 76 -50 151 -119 296 -31 64 -56 122 -56 128 0 7 -9 45
-20 84 -11 39 -25 89 -31 111 -6 22 -15 51 -19 65 -5 14 -19 58 -31 98 -26 86
-37 89 -116 36z m18 -265 c20 -92 46 -180 99 -332 54 -157 70 -238 70 -360 0
-168 -44 -339 -124 -480 -35 -62 -89 -127 -106 -127 -30 0 -121 175 -174 332
-69 207 -88 369 -58 503 22 95 72 254 105 330 52 119 130 220 162 211 6 -1 17
-36 26 -77z"/>
<path d="M2555 6765 c-50 -18 -115 -88 -115 -125 0 -77 63 -170 125 -186 41
-10 93 5 130 38 35 30 35 31 35 115 0 96 -14 134 -57 151 -50 20 -77 22 -118
7z"/>
<path d="M3190 6762 c-59 -33 -75 -64 -74 -142 3 -114 54 -176 145 -174 82 1
132 64 133 169 2 104 -37 155 -123 162 -32 3 -56 -1 -81 -15z"/>
<path d="M3565 6770 c-79 -17 -125 -72 -125 -150 0 -134 135 -218 224 -140 44
39 59 85 54 166 -3 53 -9 69 -29 90 -30 29 -81 43 -124 34z"/>
<path d="M3887 6768 c-53 -11 -85 -35 -108 -79 -25 -49 -24 -98 2 -154 53
-112 205 -115 262 -5 14 26 17 52 15 103 -3 59 -7 71 -34 98 -36 35 -84 49
-137 37z"/>
<path d="M4172 6760 c-70 -43 -92 -133 -53 -223 27 -63 62 -87 126 -87 93 0
157 66 157 160 0 131 -126 214 -230 150z"/>
<path d="M4883 6769 c-115 -34 -151 -193 -64 -280 101 -101 230 -27 234 134 2
70 -12 107 -48 131 -31 20 -84 27 -122 15z"/>
<path d="M6240 6771 c-67 -14 -110 -51 -129 -113 -24 -74 29 -173 107 -199 42
-14 111 3 141 35 57 61 54 191 -6 248 -33 31 -64 39 -113 29z"/>
<path d="M6513 6759 c-60 -29 -76 -59 -71 -128 2 -32 13 -75 24 -97 21 -40 83
-84 119 -84 36 0 98 44 118 84 45 86 28 177 -42 223 -42 29 -93 29 -148 2z"/>
<path d="M6864 6769 c-41 -12 -91 -69 -99 -112 -13 -70 31 -159 96 -192 65
-34 154 -4 181 60 17 40 16 146 -1 179 -28 52 -113 84 -177 65z"/>
<path d="M7209 6771 c-73 -23 -111 -75 -111 -150 0 -58 21 -107 62 -146 26
-25 40 -30 80 -30 80 0 136 61 147 159 12 107 -83 196 -178 167z"/>
<path d="M7527 6766 c-20 -8 -44 -20 -53 -27 -66 -54 -55 -199 20 -268 20 -19
38 -25 75 -25 57 -1 94 21 126 75 28 48 28 147 -1 185 -45 62 -104 82 -167 60z"/>
<path d="M8533 6770 c-76 -18 -117 -72 -117 -155 0 -58 31 -126 69 -151 64
-42 157 -21 203 46 30 44 31 150 2 197 -33 55 -92 79 -157 63z"/>
<path d="M8865 6771 c-65 -16 -92 -44 -109 -115 -12 -48 11 -130 48 -172 32
-37 37 -39 88 -39 68 1 107 27 137 90 25 53 27 99 6 148 -16 40 -68 87 -95 87
-10 0 -24 2 -32 4 -7 2 -26 1 -43 -3z"/>
<path d="M9208 6770 c-40 -12 -86 -48 -103 -80 -8 -16 -15 -52 -15 -80 0 -106
51 -163 147 -163 59 0 90 16 127 67 29 38 29 137 1 184 -33 56 -103 88 -157
72z"/>
<path d="M2840 6746 c-48 -32 -65 -68 -65 -137 1 -51 5 -62 30 -90 85 -89 190
-87 245 4 24 39 27 135 5 177 -37 72 -144 95 -215 46z"/>
<path d="M7824 6745 c-74 -44 -89 -125 -42 -218 50 -101 202 -104 255 -5 25
46 24 153 -1 191 -42 62 -138 76 -212 32z"/>
<path d="M3040 6329 c-51 -21 -88 -58 -104 -107 -15 -43 -15 -53 -1 -98 23
-77 72 -114 151 -114 97 0 154 74 140 182 -9 69 -32 104 -81 128 -45 22 -67
24 -105 9z"/>
<path d="M3349 6317 c-24 -13 -54 -39 -67 -58 -20 -29 -23 -41 -17 -89 14
-115 54 -160 139 -160 63 0 106 25 129 73 24 49 22 131 -4 184 -36 74 -100 92
-180 50z"/>
<path d="M3695 6323 c-77 -40 -112 -104 -99 -182 12 -77 69 -131 139 -131 38
0 91 27 120 62 26 31 27 36 21 102 -13 138 -86 199 -181 149z"/>
<path d="M4035 6328 c-81 -29 -115 -77 -115 -161 0 -161 207 -218 278 -77 66
132 -37 284 -163 238z"/>
<path d="M4353 6319 c-23 -12 -54 -32 -68 -46 -22 -22 -25 -34 -25 -90 0 -73
23 -128 67 -163 23 -18 37 -21 76 -17 60 5 96 30 124 88 24 48 28 107 10 154
-36 92 -96 116 -184 74z"/>
<path d="M7004 6322 c-58 -28 -84 -65 -84 -121 0 -68 17 -118 54 -159 28 -30
39 -35 77 -35 65 0 103 24 133 85 30 61 33 118 8 167 -36 72 -113 97 -188 63z"/>
<path d="M7330 6317 c-57 -29 -94 -93 -87 -150 12 -93 76 -157 156 -157 85 0
131 61 131 176 0 77 -22 118 -76 140 -46 19 -71 17 -124 -9z"/>
<path d="M7675 6326 c-40 -18 -70 -53 -85 -98 -17 -54 2 -139 42 -184 27 -30
35 -34 82 -34 95 0 156 61 156 158 0 61 -27 123 -65 148 -34 22 -94 27 -130
10z"/>
<path d="M8359 6328 c-20 -5 -51 -25 -70 -44 -28 -29 -33 -42 -37 -91 -6 -106
55 -186 143 -186 87 0 139 65 139 174 0 80 -18 113 -77 140 -47 21 -48 21 -98
7z"/>
<path d="M8710 6333 c-57 -21 -83 -40 -107 -80 -34 -58 -30 -148 8 -189 71
-75 192 -69 246 13 25 39 24 138 -2 187 -28 51 -99 86 -145 69z"/>
<path d="M9040 6333 c-89 -32 -120 -72 -120 -153 0 -150 163 -234 244 -127 48
63 52 190 8 241 -31 35 -93 53 -132 39z"/>
<path d="M7985 6311 c-55 -33 -69 -57 -73 -124 -2 -47 1 -70 16 -97 55 -100
186 -109 256 -17 21 28 26 44 25 93 -1 69 -20 109 -69 142 -42 28 -113 30
-155 3z"/>
<path d="M7810 5878 c-104 -54 -121 -205 -31 -281 26 -21 43 -27 82 -27 99 0
149 52 149 155 0 136 -93 207 -200 153z"/>
<path d="M8150 5879 c-67 -27 -107 -99 -96 -173 14 -94 78 -150 161 -143 42 4
54 10 81 40 55 65 68 143 34 213 -32 64 -109 91 -180 63z"/>
<path d="M8475 5871 c-66 -30 -80 -53 -80 -130 0 -79 24 -134 69 -162 62 -38
152 -15 193 48 26 39 22 157 -7 205 -35 59 -99 74 -175 39z"/>
<path d="M8815 5876 c-38 -17 -60 -41 -80 -89 -20 -48 -19 -83 5 -134 24 -54
70 -83 130 -83 91 0 142 59 143 166 1 53 -3 68 -27 99 -42 55 -105 70 -171 41z"/>
<path d="M4975 2282 c-44 -9 -119 -43 -151 -70 -30 -26 -91 -108 -108 -145
-82 -189 -72 -427 26 -579 156 -245 561 -228 678 28 29 63 44 136 29 145 -16
10 -214 23 -227 15 -6 -3 -13 -21 -17 -39 -10 -44 -30 -75 -68 -97 -41 -25
-74 -25 -115 0 -52 32 -72 90 -77 223 -5 166 17 256 77 300 34 25 90 24 126
-2 31 -22 47 -53 57 -113 l6 -38 97 1 c136 1 148 6 144 55 -8 119 -94 244
-199 290 -60 27 -201 40 -278 26z"/>
<path d="M8070 2284 c-56 -10 -107 -29 -145 -55 -133 -90 -205 -239 -205 -423
0 -268 141 -456 366 -487 238 -33 433 103 490 339 7 31 13 98 14 149 0 156
-37 260 -127 355 -81 85 -153 117 -276 123 -51 2 -103 2 -117 -1z m167 -236
c46 -49 57 -96 56 -238 0 -152 -18 -226 -64 -264 -56 -48 -143 -27 -178 42
-54 107 -50 342 8 436 29 46 46 55 102 56 38 0 50 -5 76 -32z"/>
<path d="M1856 2272 c-6 -9 -26 -73 -46 -142 -7 -25 -20 -65 -28 -90 -8 -25
-18 -58 -23 -75 -21 -78 -29 -107 -58 -202 -65 -216 -90 -300 -109 -365 l-20
-67 105 -3 c63 -2 108 1 111 7 4 6 18 48 32 95 l25 85 128 3 c124 3 127 2 136
-20 13 -34 29 -89 36 -125 4 -18 10 -35 14 -37 4 -3 66 -6 137 -6 l129 -2 -1
23 c-1 13 -41 152 -88 309 -110 360 -186 611 -186 616 0 8 -289 4 -294 -4z
m132 -304 c5 -7 12 -26 15 -43 3 -16 14 -66 26 -110 11 -44 21 -83 21 -87 0
-5 -34 -8 -75 -8 -44 0 -75 4 -75 10 0 23 64 250 70 250 4 0 12 -6 18 -12z"/>
<path d="M2525 2268 c-3 -7 -4 -222 -3 -477 l3 -463 130 0 130 1 3 173 c2 122
6 174 15 180 6 4 76 8 155 8 l143 0 -3 98 -3 97 -145 3 c-100 2 -147 6 -152
15 -10 16 -10 128 0 144 6 9 61 13 197 15 l190 3 0 105 0 105 -328 3 c-257 2
-329 0 -332 -10z"/>
<path d="M3302 1804 l3 -476 130 1 c72 0 134 1 138 1 4 0 7 75 7 168 0 92 -1
173 0 180 0 8 16 12 44 12 45 0 65 -16 78 -65 3 -11 20 -58 38 -105 18 -47 40
-107 50 -135 l18 -50 148 -5 c95 -3 148 -1 150 5 4 9 -26 87 -125 325 -17 41
-31 76 -31 77 0 2 18 14 39 28 89 56 123 119 123 234 1 86 -17 132 -73 189
-79 80 -137 91 -472 92 l-267 0 2 -476z m500 246 c27 -27 30 -36 25 -71 -3
-22 -13 -49 -22 -59 -21 -23 -107 -42 -172 -38 l-48 3 -3 98 -3 97 96 0 c94 0
97 -1 127 -30z"/>
<path d="M4262 1804 l3 -475 130 0 130 0 3 475 2 476 -135 0 -135 0 2 -476z"/>
<path d="M5773 2268 c-6 -7 -13 -24 -17 -38 -4 -14 -11 -38 -16 -55 -5 -16
-23 -77 -40 -135 -17 -58 -49 -163 -70 -235 -21 -71 -52 -175 -69 -230 -45
-153 -71 -240 -71 -242 0 -2 49 -3 109 -3 l108 0 23 83 c13 45 28 88 33 95 7
8 45 12 128 12 139 0 135 2 164 -117 9 -40 21 -73 26 -73 5 -1 66 -1 137 -1
116 0 127 1 126 18 -1 10 -25 95 -54 188 -69 227 -86 283 -120 395 -16 52 -38
127 -50 165 -12 39 -25 84 -30 100 -4 17 -13 42 -19 58 l-11 27 -139 0 c-99 0
-141 -4 -148 -12z m164 -414 c18 -65 33 -123 33 -127 0 -4 -35 -7 -77 -5 -85
3 -83 1 -64 68 5 19 17 64 26 100 23 91 24 92 38 87 6 -2 27 -57 44 -123z"/>
<path d="M6802 1804 l3 -477 104 2 c58 1 107 4 110 6 3 2 4 128 1 282 -3 153
-4 282 -2 287 3 4 21 -25 41 -65 39 -78 274 -473 296 -499 11 -12 35 -14 119
-12 l106 3 0 475 0 475 -107 -3 -108 -3 -3 -165 c-2 -91 2 -200 8 -244 15
-104 2 -115 -39 -34 -18 35 -49 90 -70 123 -21 33 -56 90 -79 128 -23 37 -61
96 -83 132 l-41 65 -129 0 -129 0 2 -476z"/>
<path d="M8634 2253 c4 -16 33 -111 66 -213 32 -102 95 -302 140 -445 45 -143
82 -261 83 -262 1 -1 65 -3 142 -4 l139 -2 12 39 c7 21 26 85 43 142 17 56 45
148 62 205 17 56 40 134 51 172 11 39 24 81 28 95 5 14 18 59 31 100 12 41 30
100 40 131 11 30 19 59 19 62 0 4 -50 6 -112 5 l-111 -3 -81 -293 c-60 -220
-84 -292 -95 -290 -12 3 -46 111 -152 493 -6 22 -16 52 -21 68 l-10 27 -140 0
-140 0 6 -27z"/>
<path d="M9745 2268 c-14 -38 -275 -920 -275 -928 0 -6 42 -10 108 -10 l107 0
24 84 c12 46 28 89 34 95 16 16 241 15 254 -1 6 -7 20 -48 31 -92 12 -43 23
-80 25 -83 6 -6 267 -6 273 0 3 2 0 15 -5 28 -6 13 -23 69 -40 124 -65 219
-93 311 -101 335 -8 24 -50 163 -92 305 -11 39 -26 88 -33 110 l-13 40 -146 3
c-112 2 -148 0 -151 -10z m149 -345 c9 -32 25 -88 35 -125 10 -37 16 -70 13
-73 -3 -3 -39 -5 -80 -5 -83 0 -78 -7 -53 80 5 19 18 68 28 108 10 40 23 72
30 72 6 0 19 -26 27 -57z"/>
<path d="M3060 1081 c-60 -14 -88 -29 -134 -71 -68 -63 -87 -113 -87 -228 0
-56 6 -113 14 -135 22 -61 72 -123 123 -153 41 -24 61 -29 141 -32 133 -6 207
27 264 116 38 60 37 78 -3 86 -35 7 -34 8 -77 -63 -34 -56 -84 -81 -162 -81
-118 0 -185 53 -215 170 -30 119 7 254 84 305 44 29 125 42 186 31 41 -8 100
-55 122 -98 12 -23 19 -28 37 -22 45 13 49 24 25 66 -23 41 -63 75 -113 97
-37 16 -157 23 -205 12z"/>
<path d="M3740 1081 c-60 -14 -88 -29 -134 -71 -70 -65 -90 -116 -90 -235 0
-84 3 -107 22 -146 27 -55 82 -109 142 -141 66 -34 194 -38 274 -8 151 57 223
228 171 406 -20 68 -84 142 -153 174 -51 24 -171 35 -232 21z m161 -63 c53
-15 112 -68 138 -123 25 -54 29 -176 7 -230 -42 -98 -111 -145 -218 -145 -79
0 -121 16 -170 65 -62 62 -85 178 -57 280 35 125 168 193 300 153z"/>
<path d="M5100 1081 c-95 -21 -145 -76 -144 -158 0 -44 5 -58 30 -84 40 -42
63 -52 189 -84 61 -15 126 -35 146 -46 78 -39 72 -127 -12 -170 -63 -31 -179
-25 -237 14 -24 15 -50 44 -59 65 -15 30 -24 38 -51 40 -27 3 -32 0 -32 -18 0
-62 74 -146 149 -168 49 -15 197 -14 236 1 86 34 135 92 135 161 0 103 -71
152 -290 197 -91 20 -124 44 -128 96 -3 35 1 44 27 66 35 29 117 44 178 32 48
-9 96 -45 113 -84 10 -25 18 -31 42 -31 34 0 43 16 28 56 -15 40 -58 83 -100
101 -40 17 -169 26 -220 14z"/>
<path d="M8457 1080 c-92 -24 -160 -81 -200 -169 -16 -36 -21 -66 -21 -141 0
-113 20 -165 88 -228 105 -97 301 -111 453 -34 62 32 64 38 61 158 l-3 109
-130 0 -130 0 0 -30 0 -30 95 -5 95 -5 0 -60 0 -60 -60 -30 c-112 -56 -249
-42 -327 32 -94 90 -87 301 14 387 96 82 283 70 345 -22 12 -18 23 -38 25 -44
5 -13 60 3 65 19 8 23 -63 107 -110 131 -54 27 -194 38 -260 22z"/>
<path d="M4277 1073 c-4 -3 -7 -140 -7 -304 l0 -299 25 -6 c54 -14 54 -14 57
237 2 144 7 233 13 235 6 2 58 -66 117 -149 190 -270 227 -316 253 -323 56
-14 55 -21 55 311 l0 305 -35 0 -35 0 0 -234 c0 -129 -4 -237 -8 -240 -5 -3
-35 32 -67 77 -291 406 -284 397 -324 397 -21 0 -41 -3 -44 -7z"/>
<path d="M5600 856 c0 -142 4 -235 12 -257 33 -98 104 -139 243 -139 135 0
201 36 243 133 8 19 12 101 12 257 l0 230 -35 0 -35 0 0 -201 c0 -212 -8 -266
-44 -308 -61 -69 -220 -69 -282 1 -36 41 -44 95 -44 307 l0 201 -35 0 -35 0 0
-224z"/>
<path d="M6277 1073 c-4 -3 -7 -140 -7 -304 0 -261 2 -298 16 -303 24 -9 367
-7 382 3 8 4 12 19 10 32 -3 24 -4 24 -163 29 l-160 5 -3 273 -2 272 -33 0
c-19 0 -37 -3 -40 -7z"/>
<path d="M6680 1050 l0 -29 108 -3 107 -3 3 -272 2 -273 27 -6 c54 -14 54 -11
53 270 0 182 3 262 11 272 8 10 39 14 115 14 l104 0 0 30 0 30 -265 0 -265 0
0 -30z"/>
<path d="M7335 1067 c-3 -7 -4 -145 -3 -307 l3 -295 35 0 35 0 3 308 2 307
-35 0 c-20 0 -38 -6 -40 -13z"/>
<path d="M7575 1067 c-3 -7 -4 -145 -3 -307 l3 -295 35 0 35 0 3 238 c1 130 6
237 11 237 5 0 82 -102 171 -226 90 -124 170 -232 178 -240 8 -9 28 -14 46
-12 l31 3 3 308 2 307 -35 0 -35 0 0 -234 c0 -129 -4 -237 -9 -240 -5 -3 -53
56 -107 132 -54 75 -112 155 -129 177 -16 23 -50 69 -75 103 -41 57 -47 62
-83 62 -21 0 -40 -6 -42 -13z"/>
</g>
</svg>
